<svg xmlns="http://www.w3.org/2000/svg" version="1.1" style="background: transparent;" viewBox="196 307.29 593.53 392.71">

<path d="M0 0 C5.24552855 2.27107543 10.10336973 5.06352965 15 8 C16.65708984 8.97646484 16.65708984 8.97646484 18.34765625 9.97265625 C20.73622161 11.39592309 23.11696882 12.82834095 25.4921875 14.2734375 C30.68111776 17.42428862 35.90983297 20.50753826 41.13574219 23.5965271 C51.01874356 29.44062854 60.89221622 35.30096552 70.75 41.1875 C71.77851074 41.79867676 72.80702148 42.40985352 73.86669922 43.03955078 C89.45151701 52.3655099 89.45151701 52.3655099 92 58 C92.4385236 61.2487484 92.42012639 64.46956413 92.40405273 67.74389648 C92.41434761 69.20820099 92.41434761 69.20820099 92.42485046 70.7020874 C92.44313407 73.92523797 92.43927863 77.14790251 92.43359375 80.37109375 C92.4381548 82.61402037 92.44346014 84.85694559 92.44947815 87.09986877 C92.45841235 91.79979125 92.45598252 96.49954383 92.44604492 101.19946289 C92.43455523 107.21985588 92.45476565 113.23966236 92.48396206 119.25997829 C92.50231555 123.89170553 92.50203325 128.52329199 92.49632454 133.15504646 C92.49617122 135.37459193 92.50222428 137.59414688 92.51461601 139.81365776 C92.52950758 142.91838155 92.5188617 146.022019 92.50170898 149.12670898 C92.51137695 150.0417067 92.52104492 150.95670441 92.53100586 151.89942932 C92.46543326 157.57278573 91.67565496 160.62535209 88 165 C86.08447266 166.64135742 86.08447266 166.64135742 84.0390625 167.91796875 C82.85618652 168.66119385 82.85618652 168.66119385 81.64941406 169.41943359 C76.58839025 172.43869899 71.49583763 175.3958409 66.375 178.3125 C59.35488078 182.32954305 52.34474397 186.35327458 45.4375 190.5625 C38.62276126 194.68616885 31.69470165 198.5997661 24.75 202.5 C23.08602173 203.43694702 23.08602173 203.43694702 21.38842773 204.39282227 C20.34759033 204.97475342 19.30675293 205.55668457 18.234375 206.15625 C17.29819336 206.68025391 16.36201172 207.20425781 15.39746094 207.74414062 C13 209 13 209 10 210 C10.04189453 210.88558594 10.08378906 211.77117187 10.12695312 212.68359375 C11.47501729 245.48080045 11.47501729 245.48080045 2 258 C1.34 258.66 0.68 259.32 0 260 C0.38878188 263.01305957 1.26456874 264.39685311 3 267 C2.9375 268.9375 2.9375 268.9375 2 271 C-1.69903617 274.37144625 -5.4599352 276.27263614 -10.0625 278.1875 C-11.27035156 278.69667969 -12.47820312 279.20585938 -13.72265625 279.73046875 C-17.86349992 281.33449043 -21.19034971 282.15042098 -25.625 282.1875 C-26.40101563 282.20167969 -27.17703125 282.21585938 -27.9765625 282.23046875 C-30 282 -30 282 -32 280 C-34.3967954 279.69562699 -34.3967954 279.69562699 -37.2313385 279.74666691 C-38.34732359 279.74105151 -39.46330868 279.73543612 -40.6131115 279.72965056 C-42.46763278 279.7356222 -42.46763278 279.7356222 -44.35961914 279.74171448 C-46.31782939 279.73620092 -46.31782939 279.73620092 -48.31559944 279.73057598 C-51.95170935 279.72055667 -55.58772322 279.72297858 -59.22384048 279.72730291 C-63.14088195 279.72977188 -67.05789772 279.72071994 -70.97492981 279.71292114 C-77.76785721 279.70085631 -84.56076112 279.69576715 -91.35369873 279.69503975 C-101.18612575 279.6937157 -111.01849566 279.67861717 -120.85090256 279.65954458 C-136.81644751 279.62867365 -152.78199391 279.60452366 -168.74755859 279.58666992 C-170.18190845 279.5850609 -170.18190845 279.5850609 -171.64523506 279.58341938 C-182.30566407 279.57160782 -192.96609366 279.56140252 -203.62652588 279.55297852 C-207.48750815 279.54990488 -211.34849041 279.54681604 -215.20947266 279.54370117 C-216.16211876 279.54293583 -217.11476486 279.54217049 -218.09627903 279.54138196 C-233.99116892 279.52829198 -249.88601768 279.50363784 -265.78087711 279.46995777 C-275.58499999 279.44968065 -285.38903483 279.43937662 -295.19317883 279.44194698 C-301.91698899 279.44298353 -308.64072969 279.43332135 -315.3645156 279.41530795 C-319.24217705 279.40528082 -323.11968477 279.40011544 -326.99735451 279.40807533 C-331.20654517 279.4166127 -335.4153457 279.40199048 -339.62451172 279.38526917 C-341.45226434 279.39458689 -341.45226434 279.39458689 -343.31694126 279.40409285 C-358.07013814 279.29737871 -368.96914898 274.43320258 -379.70703125 264.39453125 C-383.05481582 260.8984632 -385.61231967 257.19721165 -388 253 C-388.38929688 252.33097656 -388.77859375 251.66195312 -389.1796875 250.97265625 C-394.42052913 241.31344084 -394.32843096 231.16706929 -394.4140625 220.46484375 C-394.43280476 218.97553979 -394.45238037 217.48624612 -394.4727478 215.9969635 C-394.52375254 212.10582581 -394.56354611 208.21465381 -394.60089111 204.32336426 C-394.641131 200.34114314 -394.69213144 196.35906081 -394.7421875 192.37695312 C-394.83857113 184.58473115 -394.92309414 176.79244116 -395 169 C-395.68448212 168.66332306 -396.36896423 168.32664612 -397.07418823 167.97976685 C-400.21581855 166.43122722 -403.35400512 164.87582688 -406.4921875 163.3203125 C-407.56879639 162.79091064 -408.64540527 162.26150879 -409.75463867 161.71606445 C-417.71696235 157.76070503 -425.10545953 153.39990969 -432.31298828 148.20898438 C-434.03547277 146.9745787 -435.77805038 145.77417365 -437.52734375 144.578125 C-464.15461181 126.21955629 -489.331201 101.7948106 -501 71 C-501 70.01 -501 69.02 -501 68 C-490.64739934 68.60006825 -480.48127717 69.91238831 -470.25 71.5625 C-469.45750854 71.68917053 -468.66501709 71.81584106 -467.84851074 71.9463501 C-455.94660783 73.89044604 -445.33653027 76.51497941 -435 83 C-435 83.66 -435 84.32 -435 85 C-434.30519531 85.25394531 -433.61039062 85.50789063 -432.89453125 85.76953125 C-415.97110883 92.96369867 -399.80197858 105.15580484 -384.51953125 115.265625 C-383.47796875 115.95382324 -382.43640625 116.64202148 -381.36328125 117.35107422 C-379.37005592 118.6734044 -377.38153961 120.00286789 -375.3984375 121.34033203 C-374.49996094 121.93700684 -373.60148437 122.53368164 -372.67578125 123.1484375 C-371.4988269 123.94000244 -371.4988269 123.94000244 -370.2980957 124.74755859 C-367.65409609 126.18851451 -366.02336038 126.85007229 -363 127 C-361.84287758 126.51521022 -360.68575516 126.03042044 -359.49356842 125.53094006 C-354.44809406 123.57914977 -349.75239976 123.59072389 -344.3951416 123.63923645 C-342.82905505 123.63539154 -342.82905505 123.63539154 -341.23133039 123.63146895 C-337.74585818 123.62654216 -334.26082269 123.64300619 -330.77539062 123.65942383 C-328.27177948 123.66027034 -325.76816759 123.65979449 -323.26455688 123.65809631 C-317.88111291 123.65741398 -312.49780392 123.66590259 -307.11439514 123.68280983 C-299.33100813 123.70723851 -291.5476738 123.71500904 -283.7642526 123.7187738 C-271.13479729 123.72533223 -258.50540025 123.74527684 -245.87597656 123.77368164 C-233.61100556 123.80123799 -221.34605041 123.82246385 -209.08105469 123.83520508 C-208.3244596 123.83599325 -207.56786451 123.83678142 -206.7883423 123.83759347 C-202.99255337 123.84150872 -199.19676434 123.84529981 -195.40097523 123.84902918 C-163.93394111 123.88010614 -132.46697942 123.93314905 -101 124 C-101.00888245 123.24102417 -101.01776489 122.48204834 -101.0269165 121.70007324 C-101.10731495 114.52112288 -101.16809169 107.34239312 -101.20724869 100.16310883 C-101.2280571 96.47280045 -101.25624919 92.78286642 -101.30175781 89.09277344 C-101.34545943 85.52657939 -101.36918776 81.96074369 -101.37950897 78.39430237 C-101.39041494 76.38249888 -101.42160191 74.37083804 -101.45318604 72.35925293 C-101.45495864 65.07997503 -100.97264926 60.17121653 -97 54 C-96.67 53.67 -96.34 53.34 -96 53 C-96.79069382 52.99857498 -97.58138763 52.99714996 -98.39604187 52.99568176 C-105.85590288 52.97783545 -113.31507414 52.93617485 -120.77463055 52.86790943 C-124.60951714 52.83365089 -128.44400588 52.80853135 -132.27905273 52.80444336 C-135.98174943 52.80015775 -139.68354882 52.77167546 -143.38596535 52.72656822 C-144.79686057 52.71360123 -146.20786323 52.70928279 -147.61881065 52.71384621 C-149.59840848 52.71875663 -151.57800184 52.68977706 -153.55737305 52.65942383 C-154.68322311 52.65276199 -155.80907318 52.64610016 -156.96903992 52.63923645 C-160.95730563 51.79810204 -162.45682962 50.11595731 -165 47 C-166.23671367 43.28985899 -166.56368603 39.85561242 -166 36 C-164.20636089 33.1899654 -162.98119065 31.49059532 -160 30 C-158.66663609 29.90947222 -157.32886292 29.87970246 -155.99243164 29.88215637 C-154.73524071 29.88047958 -154.73524071 29.88047958 -153.45265198 29.87876892 C-152.07036659 29.88427513 -152.07036659 29.88427513 -150.66015625 29.88989258 C-148.65039061 29.88934969 -146.64062499 29.88876267 -144.63085938 29.88813782 C-143.02633911 29.89028007 -143.02633911 29.89028007 -141.3894043 29.89246559 C-135.72960639 29.89597973 -130.06990856 29.87018029 -124.41015625 29.84960938 C-117.20548236 29.82530288 -110.0010958 29.80953218 -102.79638672 29.82495117 C-96.97774159 29.83663992 -91.15981166 29.81913725 -85.34127808 29.78250694 C-83.12785376 29.77391122 -80.91436067 29.77594159 -78.70095825 29.789011 C-62.73957157 30.2150724 -62.73957157 30.2150724 -49 23 C-47.80263187 22.25882119 -46.59028509 21.54104835 -45.36132812 20.85351562 C-43.63920518 19.84650297 -41.91711168 18.83943973 -40.19543457 17.83166504 C-37.66249949 16.34904696 -35.12882796 14.86768946 -32.59521484 13.38623047 C-31.33722115 12.65048396 -30.07938166 11.9144737 -28.82170105 11.17819214 C-27.59621436 10.46097438 -26.3702391 9.7445907 -25.14375305 9.02908325 C-20.75748233 6.46446625 -16.42917718 3.81567288 -12.13549805 1.09912109 C-7.98941382 -1.03483011 -4.47202522 -1.12421745 0 0 Z " fill="#5A5959" transform="translate(697,308)"/>
<path d="M0 0 C5.24552855 2.27107543 10.10336973 5.06352965 15 8 C16.65708984 8.97646484 16.65708984 8.97646484 18.34765625 9.97265625 C20.73622161 11.39592309 23.11696882 12.82834095 25.4921875 14.2734375 C30.68111776 17.42428862 35.90983297 20.50753826 41.13574219 23.5965271 C51.01874356 29.44062854 60.89221622 35.30096552 70.75 41.1875 C71.77851074 41.79867676 72.80702148 42.40985352 73.86669922 43.03955078 C89.45151701 52.3655099 89.45151701 52.3655099 92 58 C92.4385236 61.2487484 92.42012639 64.46956413 92.40405273 67.74389648 C92.41434761 69.20820099 92.41434761 69.20820099 92.42485046 70.7020874 C92.44313407 73.92523797 92.43927863 77.14790251 92.43359375 80.37109375 C92.4381548 82.61402037 92.44346014 84.85694559 92.44947815 87.09986877 C92.45841235 91.79979125 92.45598252 96.49954383 92.44604492 101.19946289 C92.43455523 107.21985588 92.45476565 113.23966236 92.48396206 119.25997829 C92.50231555 123.89170553 92.50203325 128.52329199 92.49632454 133.15504646 C92.49617122 135.37459193 92.50222428 137.59414688 92.51461601 139.81365776 C92.52950758 142.91838155 92.5188617 146.022019 92.50170898 149.12670898 C92.51137695 150.0417067 92.52104492 150.95670441 92.53100586 151.89942932 C92.46543326 157.57278573 91.67565496 160.62535209 88 165 C86.08447266 166.64135742 86.08447266 166.64135742 84.0390625 167.91796875 C82.85618652 168.66119385 82.85618652 168.66119385 81.64941406 169.41943359 C76.58839025 172.43869899 71.49583763 175.3958409 66.375 178.3125 C59.35488078 182.32954305 52.34474397 186.35327458 45.4375 190.5625 C38.62276126 194.68616885 31.69470165 198.5997661 24.75 202.5 C23.08602173 203.43694702 23.08602173 203.43694702 21.38842773 204.39282227 C20.34759033 204.97475342 19.30675293 205.55668457 18.234375 206.15625 C17.29819336 206.68025391 16.36201172 207.20425781 15.39746094 207.74414062 C13 209 13 209 10 210 C10.04189453 210.88558594 10.08378906 211.77117187 10.12695312 212.68359375 C11.47501729 245.48080045 11.47501729 245.48080045 2 258 C1.34 258.66 0.68 259.32 0 260 C0.38878188 263.01305957 1.26456874 264.39685311 3 267 C2.9375 268.9375 2.9375 268.9375 2 271 C-1.69903617 274.37144625 -5.4599352 276.27263614 -10.0625 278.1875 C-11.27035156 278.69667969 -12.47820312 279.20585938 -13.72265625 279.73046875 C-17.83629135 281.32395076 -21.21881479 282.16158157 -25.625 282.25 C-26.40101563 282.27578125 -27.17703125 282.3015625 -27.9765625 282.328125 C-28.97816406 282.16570312 -28.97816406 282.16570312 -30 282 C-30.66 281.01 -31.32 280.02 -32 279 C-30.42412109 278.45472656 -30.42412109 278.45472656 -28.81640625 277.8984375 C-19.29612067 274.5216616 -9.6308573 271.07234802 -3 263 C-3 262.34 -3 261.68 -3 261 C-6.3 259.35 -9.6 257.7 -13 256 C-11.02108957 252.04217914 -8.78502574 248.37711606 -6.4375 244.6328125 C-3.65161981 239.53041237 -2.74746151 235.03910061 -2.70947266 229.2512207 C-2.70275543 228.60477097 -2.69603821 227.95832123 -2.68911743 227.2922821 C-2.67023147 225.17003534 -2.6662175 223.04810666 -2.6640625 220.92578125 C-2.65762596 219.43613053 -2.65089698 217.94648104 -2.64389038 216.45683289 C-2.63193959 213.33748449 -2.62820707 210.21824662 -2.62939453 207.09887695 C-2.62959712 203.12924409 -2.60234821 199.16033196 -2.56785011 195.19086933 C-2.54545092 192.11334574 -2.541561 189.03599171 -2.54261398 185.958395 C-2.54027551 184.49655879 -2.53155245 183.03471662 -2.51594925 181.57296181 C-2.40642791 170.24893184 -3.76592451 160.10093368 -11 151 C-11.99 150.34 -12.98 149.68 -14 149 C-14.33 148.01 -14.66 147.02 -15 146 C-16.70031845 144.41657568 -16.70031845 144.41657568 -18.875 143 C-19.92300781 142.2575 -19.92300781 142.2575 -20.9921875 141.5 C-29.70406699 137.15537439 -38.50701326 136.56558436 -48.09350586 136.6257782 C-49.36921165 136.62180379 -50.64491743 136.61782939 -51.95928097 136.61373454 C-55.470572 136.60322572 -58.98160557 136.61122544 -62.49288511 136.62248504 C-66.29117609 136.63137496 -70.08943509 136.62286977 -73.88772583 136.61662292 C-81.31686627 136.60716067 -88.74590921 136.61371218 -96.17504239 136.62588587 C-104.83521381 136.63954515 -113.49536232 136.63786454 -122.15554178 136.63575254 C-137.61250353 136.6325664 -153.06941912 136.64420873 -168.52636719 136.66381836 C-183.50880336 136.68282087 -198.49118545 136.68990542 -213.47363281 136.68432617 C-229.80713652 136.67826176 -246.14061649 136.67845759 -262.47411823 136.689812 C-264.2173748 136.69101923 -265.96063137 136.69222522 -267.70388794 136.69342995 C-268.56149764 136.69403349 -269.41910735 136.69463702 -270.30270523 136.69525885 C-276.33249267 136.69913034 -282.36227124 136.69874736 -288.39205933 136.6968441 C-295.74509469 136.69471706 -303.0980828 136.69998468 -310.45110488 136.71445765 C-314.19930821 136.7216772 -317.94744291 136.72579962 -321.69565201 136.72121429 C-325.76599997 136.71635618 -329.83616158 136.7270976 -333.90649414 136.73930359 C-335.66814108 136.7336346 -335.66814108 136.7336346 -337.46537685 136.72785109 C-349.04748579 136.78915141 -357.69085956 137.85658829 -367 145 C-368.35164269 145.9618899 -369.7055969 146.92054512 -371.0625 147.875 C-372.031875 148.57625 -373.00125 149.2775 -374 150 C-374.67408308 148.73308493 -375.33900497 147.46129251 -376 146.1875 C-376.37125 145.47980469 -376.7425 144.77210938 -377.125 144.04296875 C-378 142 -378 142 -378 139 C-384.93145291 143.56461533 -389.54479355 151.0048895 -391.50146484 159.06591797 C-392.28148256 163.3535439 -392.70529127 167.65154267 -393 172 C-393.56356201 171.39043457 -394.12712402 170.78086914 -394.70776367 170.15283203 C-396.98476307 168.01431028 -398.86395568 166.86846693 -401.67578125 165.5546875 C-402.57876953 165.122771 -403.48175781 164.69085449 -404.41210938 164.24584961 C-405.36923828 163.79346924 -406.32636719 163.34108887 -407.3125 162.875 C-416.13313952 158.58350826 -424.30814962 153.92821655 -432.28076172 148.22509766 C-434.01838781 146.98689719 -435.7739517 145.7785897 -437.53515625 144.57421875 C-464.15739125 126.20936391 -489.33093188 101.79552084 -501 71 C-501 70.01 -501 69.02 -501 68 C-490.64739934 68.60006825 -480.48127717 69.91238831 -470.25 71.5625 C-469.45750854 71.68917053 -468.66501709 71.81584106 -467.84851074 71.9463501 C-455.94660783 73.89044604 -445.33653027 76.51497941 -435 83 C-435 83.66 -435 84.32 -435 85 C-434.30519531 85.25394531 -433.61039062 85.50789063 -432.89453125 85.76953125 C-415.97110883 92.96369867 -399.80197858 105.15580484 -384.51953125 115.265625 C-383.47796875 115.95382324 -382.43640625 116.64202148 -381.36328125 117.35107422 C-379.37005592 118.6734044 -377.38153961 120.00286789 -375.3984375 121.34033203 C-374.49996094 121.93700684 -373.60148437 122.53368164 -372.67578125 123.1484375 C-371.4988269 123.94000244 -371.4988269 123.94000244 -370.2980957 124.74755859 C-367.65409609 126.18851451 -366.02336038 126.85007229 -363 127 C-361.84287758 126.51521022 -360.68575516 126.03042044 -359.49356842 125.53094006 C-354.44809406 123.57914977 -349.75239976 123.59072389 -344.3951416 123.63923645 C-342.82905505 123.63539154 -342.82905505 123.63539154 -341.23133039 123.63146895 C-337.74585818 123.62654216 -334.26082269 123.64300619 -330.77539062 123.65942383 C-328.27177948 123.66027034 -325.76816759 123.65979449 -323.26455688 123.65809631 C-317.88111291 123.65741398 -312.49780392 123.66590259 -307.11439514 123.68280983 C-299.33100813 123.70723851 -291.5476738 123.71500904 -283.7642526 123.7187738 C-271.13479729 123.72533223 -258.50540025 123.74527684 -245.87597656 123.77368164 C-233.61100556 123.80123799 -221.34605041 123.82246385 -209.08105469 123.83520508 C-208.3244596 123.83599325 -207.56786451 123.83678142 -206.7883423 123.83759347 C-202.99255337 123.84150872 -199.19676434 123.84529981 -195.40097523 123.84902918 C-163.93394111 123.88010614 -132.46697942 123.93314905 -101 124 C-101.00888245 123.24102417 -101.01776489 122.48204834 -101.0269165 121.70007324 C-101.10731495 114.52112288 -101.16809169 107.34239312 -101.20724869 100.16310883 C-101.2280571 96.47280045 -101.25624919 92.78286642 -101.30175781 89.09277344 C-101.34545943 85.52657939 -101.36918776 81.96074369 -101.37950897 78.39430237 C-101.39041494 76.38249888 -101.42160191 74.37083804 -101.45318604 72.35925293 C-101.45495864 65.07997503 -100.97264926 60.17121653 -97 54 C-96.67 53.67 -96.34 53.34 -96 53 C-96.79069382 52.99857498 -97.58138763 52.99714996 -98.39604187 52.99568176 C-105.85590288 52.97783545 -113.31507414 52.93617485 -120.77463055 52.86790943 C-124.60951714 52.83365089 -128.44400588 52.80853135 -132.27905273 52.80444336 C-135.98174943 52.80015775 -139.68354882 52.77167546 -143.38596535 52.72656822 C-144.79686057 52.71360123 -146.20786323 52.70928279 -147.61881065 52.71384621 C-149.59840848 52.71875663 -151.57800184 52.68977706 -153.55737305 52.65942383 C-154.68322311 52.65276199 -155.80907318 52.64610016 -156.96903992 52.63923645 C-160.95730563 51.79810204 -162.45682962 50.11595731 -165 47 C-166.23671367 43.28985899 -166.56368603 39.85561242 -166 36 C-164.20636089 33.1899654 -162.98119065 31.49059532 -160 30 C-158.66663609 29.90947222 -157.32886292 29.87970246 -155.99243164 29.88215637 C-154.73524071 29.88047958 -154.73524071 29.88047958 -153.45265198 29.87876892 C-152.07036659 29.88427513 -152.07036659 29.88427513 -150.66015625 29.88989258 C-148.65039061 29.88934969 -146.64062499 29.88876267 -144.63085938 29.88813782 C-143.02633911 29.89028007 -143.02633911 29.89028007 -141.3894043 29.89246559 C-135.72960639 29.89597973 -130.06990856 29.87018029 -124.41015625 29.84960938 C-117.20548236 29.82530288 -110.0010958 29.80953218 -102.79638672 29.82495117 C-96.97774159 29.83663992 -91.15981166 29.81913725 -85.34127808 29.78250694 C-83.12785376 29.77391122 -80.91436067 29.77594159 -78.70095825 29.789011 C-62.73957157 30.2150724 -62.73957157 30.2150724 -49 23 C-47.80263187 22.25882119 -46.59028509 21.54104835 -45.36132812 20.85351562 C-43.63920518 19.84650297 -41.91711168 18.83943973 -40.19543457 17.83166504 C-37.66249949 16.34904696 -35.12882796 14.86768946 -32.59521484 13.38623047 C-31.33722115 12.65048396 -30.07938166 11.9144737 -28.82170105 11.17819214 C-27.59621436 10.46097438 -26.3702391 9.7445907 -25.14375305 9.02908325 C-20.75748233 6.46446625 -16.42917718 3.81567288 -12.13549805 1.09912109 C-7.98941382 -1.03483011 -4.47202522 -1.12421745 0 0 Z " fill="#F17D5F" transform="translate(697,308)"/>
<path d="M0 0 C10.35260066 0.60006825 20.51872283 1.91238831 30.75 3.5625 C31.54249146 3.68917053 32.33498291 3.81584106 33.15148926 3.9463501 C45.05339217 5.89044604 55.66346973 8.51497941 66 15 C66 15.66 66 16.32 66 17 C66.69480469 17.25394531 67.38960938 17.50789063 68.10546875 17.76953125 C85.02889117 24.96369867 101.19802142 37.15580484 116.48046875 47.265625 C117.52203125 47.95382324 118.56359375 48.64202148 119.63671875 49.35107422 C121.62994408 50.6734044 123.61846039 52.00286789 125.6015625 53.34033203 C126.50003906 53.93700684 127.39851563 54.53368164 128.32421875 55.1484375 C129.5011731 55.94000244 129.5011731 55.94000244 130.7019043 56.74755859 C133.34590391 58.18851451 134.97663962 58.85007229 138 59 C139.15712242 58.51521022 140.31424484 58.03042044 141.50643158 57.53094006 C146.55190594 55.57914977 151.24760024 55.59072389 156.6048584 55.63923645 C158.17094495 55.63539154 158.17094495 55.63539154 159.76866961 55.63146895 C163.25414182 55.62654216 166.73917731 55.64300619 170.22460938 55.65942383 C172.72822052 55.66027034 175.23183241 55.65979449 177.73544312 55.65809631 C183.11888709 55.65741398 188.50219608 55.66590259 193.88560486 55.68280983 C201.66899187 55.70723851 209.4523262 55.71500904 217.2357474 55.7187738 C229.86520271 55.72533223 242.49459975 55.74527684 255.12402344 55.77368164 C267.38899444 55.80123799 279.65394959 55.82246385 291.91894531 55.83520508 C292.6755404 55.83599325 293.43213549 55.83678142 294.2116577 55.83759347 C298.00744663 55.84150872 301.80323566 55.84529981 305.59902477 55.84902918 C337.06605889 55.88010614 368.53302058 55.93314905 400 56 C400 52.37 400 48.74 400 45 C400.33 45 400.66 45 401 45 C401 48.63 401 52.26 401 56 C401.84667236 55.99555878 402.69334473 55.99111755 403.56567383 55.98654175 C411.5687517 55.94636538 419.57179539 55.91596509 427.57495117 55.89637566 C431.68884607 55.88596578 435.8026572 55.87185802 439.91650391 55.84912109 C443.89115211 55.82729252 447.86572004 55.81541037 451.84042358 55.81024551 C453.35217552 55.80656766 454.86392337 55.79938597 456.37564087 55.78853989 C473.38671293 55.67141294 485.99878759 59.25746778 498.58984375 71.359375 C508.60600758 82.33332435 512.04380538 95.29347701 512.31640625 109.7734375 C512.33718735 110.6971817 512.35796844 111.6209259 512.37937927 112.57266235 C512.44446119 115.50670344 512.50356643 118.44082962 512.5625 121.375 C512.6057246 123.37110235 512.64934012 125.36719627 512.69335938 127.36328125 C512.8000999 132.24210156 512.90148248 137.12100699 513 142 C512.34 142 511.68 142 511 142 C511.04189453 142.88558594 511.08378906 143.77117187 511.12695312 144.68359375 C512.47501729 177.48080045 512.47501729 177.48080045 503 190 C502.34 190.66 501.68 191.32 501 192 C501.38878188 195.01305957 502.26456874 196.39685311 504 199 C503.9375 200.9375 503.9375 200.9375 503 203 C499.30096383 206.37144625 495.5400648 208.27263614 490.9375 210.1875 C489.72964844 210.69667969 488.52179688 211.20585938 487.27734375 211.73046875 C483.16370865 213.32395076 479.78118521 214.16158157 475.375 214.25 C474.21097656 214.28867187 474.21097656 214.28867187 473.0234375 214.328125 C472.02183594 214.16570312 472.02183594 214.16570312 471 214 C470.34 213.01 469.68 212.02 469 211 C470.05058594 210.63648438 471.10117187 210.27296875 472.18359375 209.8984375 C481.70387933 206.5216616 491.3691427 203.07234802 498 195 C498 194.34 498 193.68 498 193 C494.7 191.35 491.4 189.7 488 188 C489.97891043 184.04217914 492.21497426 180.37711606 494.5625 176.6328125 C497.34838019 171.53041237 498.25253849 167.03910061 498.29052734 161.2512207 C498.29724457 160.60477097 498.30396179 159.95832123 498.31088257 159.2922821 C498.32976853 157.17003534 498.3337825 155.04810666 498.3359375 152.92578125 C498.34237404 151.43613053 498.34910302 149.94648104 498.35610962 148.45683289 C498.36806041 145.33748449 498.37179293 142.21824662 498.37060547 139.09887695 C498.37040288 135.12924409 498.39765179 131.16033196 498.43214989 127.19086933 C498.45454908 124.11334574 498.458439 121.03599171 498.45738602 117.958395 C498.45972449 116.49655879 498.46844755 115.03471662 498.48405075 113.57296181 C498.59357209 102.24893184 497.23407549 92.10093368 490 83 C489.01 82.34 488.02 81.68 487 81 C486.67 80.01 486.34 79.02 486 78 C484.29968155 76.41657568 484.29968155 76.41657568 482.125 75 C481.42632813 74.505 480.72765625 74.01 480.0078125 73.5 C471.29593301 69.15537439 462.49298674 68.56558436 452.90649414 68.6257782 C450.99293546 68.61981659 450.99293546 68.61981659 449.04071903 68.61373454 C445.529428 68.60322572 442.01839443 68.61122544 438.50711489 68.62248504 C434.70882391 68.63137496 430.91056491 68.62286977 427.11227417 68.61662292 C419.68313373 68.60716067 412.25409079 68.61371218 404.82495761 68.62588587 C396.16478619 68.63954515 387.50463768 68.63786454 378.84445822 68.63575254 C363.38749647 68.6325664 347.93058088 68.64420873 332.47363281 68.66381836 C317.49119664 68.68282087 302.50881455 68.68990542 287.52636719 68.68432617 C271.19286348 68.67826176 254.85938351 68.67845759 238.52588177 68.689812 C236.7826252 68.69101923 235.03936863 68.69222522 233.29611206 68.69342995 C232.43850236 68.69403349 231.58089265 68.69463702 230.69729477 68.69525885 C224.66750733 68.69913034 218.63772876 68.69874736 212.60794067 68.6968441 C205.25490531 68.69471706 197.9019172 68.69998468 190.54889512 68.71445765 C186.80069179 68.7216772 183.05255709 68.72579962 179.30434799 68.72121429 C175.23400003 68.71635618 171.16383842 68.7270976 167.09350586 68.73930359 C165.33185892 68.7336346 165.33185892 68.7336346 163.53462315 68.72785109 C151.95251421 68.78915141 143.30914044 69.85658829 134 77 C132.64835731 77.9618899 131.2944031 78.92054512 129.9375 79.875 C128.968125 80.57625 127.99875 81.2775 127 82 C126.32591692 80.73308493 125.66099503 79.46129251 125 78.1875 C124.62875 77.47980469 124.2575 76.77210938 123.875 76.04296875 C123 74 123 74 123 71 C116.06854709 75.56461533 111.45520645 83.0048895 109.49853516 91.06591797 C108.71851744 95.3535439 108.29470873 99.65154267 108 104 C107.43643799 103.39043457 106.87287598 102.78086914 106.29223633 102.15283203 C104.01523693 100.01431028 102.13604432 98.86846693 99.32421875 97.5546875 C98.42123047 97.122771 97.51824219 96.69085449 96.58789062 96.24584961 C95.63076172 95.79346924 94.67363281 95.34108887 93.6875 94.875 C84.86686048 90.58350826 76.69185038 85.92821655 68.71923828 80.22509766 C66.98161219 78.98689719 65.2260483 77.7785897 63.46484375 76.57421875 C36.84260875 58.20936391 11.66906812 33.79552084 0 3 C0 2.01 0 1.02 0 0 Z " fill="#969695" transform="translate(196,376)"/>
<path d="M0 0 C10.35260066 0.60006825 20.51872283 1.91238831 30.75 3.5625 C31.54249146 3.68917053 32.33498291 3.81584106 33.15148926 3.9463501 C45.05339217 5.89044604 55.66346973 8.51497941 66 15 C66 15.66 66 16.32 66 17 C66.69480469 17.25394531 67.38960938 17.50789063 68.10546875 17.76953125 C88.35226296 26.37646806 107.51196528 41.23260009 125.77734375 53.34033203 C126.68226563 53.93700684 127.5871875 54.53368164 128.51953125 55.1484375 C129.31464111 55.67614746 130.10975098 56.20385742 130.92895508 56.74755859 C133.06831031 58.14517207 133.06831031 58.14517207 136 59 C136 59.66 136 60.32 136 61 C134.37485926 62.1053347 132.69701265 63.13353881 131 64.125 C120.86503987 70.46584685 112.40064593 78.99770515 109.50732422 91.05273438 C108.72492375 95.34555112 108.29509625 99.64582471 108 104 C107.43643799 103.39043457 106.87287598 102.78086914 106.29223633 102.15283203 C104.01523693 100.01431028 102.13604432 98.86846693 99.32421875 97.5546875 C98.42123047 97.122771 97.51824219 96.69085449 96.58789062 96.24584961 C95.63076172 95.79346924 94.67363281 95.34108887 93.6875 94.875 C84.86686048 90.58350826 76.69185038 85.92821655 68.71923828 80.22509766 C66.98161219 78.98689719 65.2260483 77.7785897 63.46484375 76.57421875 C36.84260875 58.20936391 11.66906812 33.79552084 0 3 C0 2.01 0 1.02 0 0 Z " fill="#C6C6C8" transform="translate(196,376)"/>
<path d="M0 0 C4.27430301 3.75932675 7.03448414 8.43015164 10.0625 13.1875 C10.9131604 14.51031982 10.9131604 14.51031982 11.78100586 15.85986328 C12.95100653 17.67957418 14.11904744 19.50054657 15.28515625 21.32275391 C17.86404269 25.34895958 20.46371472 29.36162372 23.0625 33.375 C23.50279541 34.05715576 23.94309082 34.73931152 24.39672852 35.44213867 C24.81365967 36.08771729 25.23059082 36.7332959 25.66015625 37.3984375 C26.05493164 38.01879883 26.44970703 38.63916016 26.85644531 39.27832031 C27.88468077 40.82638103 29.02468513 42.29879301 30.17578125 43.7578125 C32.8249088 48.466112 33.36368907 53.19754339 34.125 58.5 C34.28967773 59.57209717 34.45435547 60.64419434 34.62402344 61.7487793 C34.94828934 63.87368413 35.26618575 65.99957248 35.57714844 68.12646484 C35.92965216 70.52194338 36.30325264 72.91155673 36.6953125 75.30078125 C39.11872692 90.64338381 39.11872692 90.64338381 38 96 C36.2890625 97.86328125 36.2890625 97.86328125 34 99 C29.31408245 98.87984827 25.51030967 96.24595689 21.5625 93.9375 C20.86382813 93.5355542 20.16515625 93.1336084 19.4453125 92.71948242 C18.00136694 91.88865887 16.55882475 91.05539168 15.11767578 90.21972656 C13.12823739 89.07386142 11.12830381 87.9503083 9.12109375 86.8359375 C8.20444946 86.32365601 8.20444946 86.32365601 7.26928711 85.80102539 C5.60737278 84.87249067 3.9443492 83.94594209 2.28125 83.01953125 C-5.05326503 78.50531188 -10.22215498 74.07307766 -15 66.875 C-15.50619873 66.13161377 -16.01239746 65.38822754 -16.53393555 64.62231445 C-17.5506295 63.12603876 -18.56206339 61.6261737 -19.56787109 60.12255859 C-20.87793103 58.18091845 -22.2196871 56.26843023 -23.58203125 54.36328125 C-24.31808594 53.31527344 -25.05414062 52.26726563 -25.8125 51.1875 C-26.45832031 50.27355469 -27.10414063 49.35960937 -27.76953125 48.41796875 C-29 46 -29 46 -28.9296875 43.94921875 C-27.34157285 40.61951618 -24.76611868 38.12354015 -22.30078125 35.4140625 C-20.68158999 33.01187925 -20.68158999 33.01187925 -21.5390625 30.06640625 C-23.0887335 26.81375455 -24.86850333 24.16748297 -27.0625 21.3125 C-30.90277778 16.29166667 -30.90277778 16.29166667 -32 13 C-31.30777344 12.93683594 -30.61554687 12.87367188 -29.90234375 12.80859375 C-23.43346386 11.9989184 -17.92618017 10.37725082 -12.0625 7.625 C-11.43657959 7.33294678 -10.81065918 7.04089355 -10.16577148 6.73999023 C-6.37973327 4.88993074 -3.18883221 2.74711541 0 0 Z " fill="#D4D4D7" transform="translate(700,577)"/>
<path d="M0 0 C0.33 0 0.66 0 1 0 C1.78052377 6.18207232 2.13749927 12.18333292 2.09765625 18.41015625 C2.0962413 19.26306747 2.09482635 20.1159787 2.09336853 20.99473572 C2.08782939 23.68402816 2.0752888 26.37323328 2.0625 29.0625 C2.05747712 30.90038941 2.0529156 32.73828015 2.04882812 34.57617188 C2.03788 39.05081422 2.02065839 43.52539238 2 48 C2.72424164 47.99777939 3.44848328 47.99555878 4.19467163 47.99327087 C11.10564786 47.97302064 18.01661952 47.95790211 24.92761803 47.94818783 C28.4784512 47.94302536 32.02925935 47.93605254 35.58007812 47.92456055 C62.75807354 47.83923038 62.75807354 47.83923038 73.6640625 48.37890625 C74.35930023 48.40951645 75.05453796 48.44012665 75.77084351 48.47166443 C79.55405466 48.70173638 82.55855561 49.42807725 86 51 C87.5185259 51.38423706 89.03946165 51.75905847 90.5625 52.125 C104.98642692 56.43288902 116.55374762 68.18173093 123.59765625 81.109375 C128.78405408 91.80000004 129.21088213 102.21431023 129.625 113.9375 C129.6765625 115.17435547 129.728125 116.41121094 129.78125 117.68554688 C129.90626117 121.12519253 129.97148384 124.5583392 130 128 C130.02602295 128.82000488 130.0520459 129.64000977 130.07885742 130.48486328 C130.01953125 132.56640625 130.01953125 132.56640625 129 136 C126.61577632 138.22630075 123.98165051 139.58205481 121.0625 141 C120.32064453 141.39316406 119.57878906 141.78632812 118.81445312 142.19140625 C113.41745155 145 113.41745155 145 111 145 C110.98541748 143.82083008 110.97083496 142.64166016 110.95581055 141.42675781 C110.89727655 136.99824624 110.82005344 132.57021426 110.73754883 128.14208984 C110.70455612 126.23559426 110.67644681 124.32900701 110.65356445 122.42236328 C110.42473084 103.85275899 108.51840877 88.22873006 95.2734375 74.0703125 C85.56841141 65.23240215 75.00701314 60.96162837 61.98486328 60.79467773 C60.97405449 60.77982834 60.97405449 60.77982834 59.94282532 60.76467896 C57.73535568 60.73331816 55.52786459 60.70840816 53.3203125 60.68359375 C51.78188547 60.66300221 50.24346382 60.64200518 48.70504761 60.62062073 C44.67082088 60.56562715 40.63654503 60.51611845 36.60223389 60.46777344 C31.75376047 60.40852188 26.90537615 60.34241981 22.05697632 60.27747345 C14.70470564 60.17975002 7.35237581 60.0906986 0 60 C0 40.2 0 20.4 0 0 Z " fill="#D0563F" transform="translate(597,372)"/>
<path d="M0 0 C14.19 0 28.38 0 43 0 C41.35 2.64 39.7 5.28 38 8 C37.01 8 36.02 8 35 8 C34.67 8.99 34.34 9.98 34 11 C33.13035143 12.5686699 32.20814336 14.10876282 31.25 15.625 C30.76015625 16.42164063 30.2703125 17.21828125 29.765625 18.0390625 C27.56743762 20.4804122 26.22234337 20.7061385 23 21 C22.01 21 21.02 21 20 21 C20 22.98 20 24.96 20 27 C19.34 27 18.68 27 18 27 C18 27.99 18 28.98 18 30 C13.89800547 34.68799374 10.11426824 37.99674811 3.79296875 38.51171875 C2.25840388 38.58416602 0.72311333 38.64244848 -0.8125 38.6875 C-1.99489258 38.73874023 -1.99489258 38.73874023 -3.20117188 38.79101562 C-5.13363119 38.87299875 -7.06679035 38.93818845 -9 39 C-8.21012527 40.91740583 -7.41802852 42.83389641 -6.625 44.75 C-6.18414062 45.81734375 -5.74328125 46.8846875 -5.2890625 47.984375 C-4.09400146 50.89267166 -4.09400146 50.89267166 -2.85546875 53.171875 C-1.45499638 56.16466526 -1.71068735 58.75969833 -2 62 C-3.76015131 65.1850357 -4.49890916 65.83296972 -8 67 C-9.62933154 67.01560763 -11.25973097 66.96765104 -12.88671875 66.87890625 C-13.82451172 66.83056641 -14.76230469 66.78222656 -15.72851562 66.73242188 C-16.70498047 66.67634766 -17.68144531 66.62027344 -18.6875 66.5625 C-19.67556641 66.51029297 -20.66363281 66.45808594 -21.68164062 66.40429688 C-24.12141676 66.27464694 -26.56078105 66.13968258 -29 66 C-28.4225 67.15757812 -27.845 68.31515625 -27.25 69.5078125 C-26.49938425 71.04657479 -25.74941835 72.58565419 -25 74.125 C-24.6184375 74.88554688 -24.236875 75.64609375 -23.84375 76.4296875 C-20.04222973 84.3042652 -20.04222973 84.3042652 -21 89 C-23.0390625 91.8515625 -23.0390625 91.8515625 -26 94 C-29.4609375 94.5234375 -29.4609375 94.5234375 -33.375 94.375 C-34.06529297 94.35501953 -34.75558594 94.33503906 -35.46679688 94.31445312 C-37.64726428 94.24117675 -39.82201856 94.12663807 -42 94 C-43.09296387 93.94054199 -43.09296387 93.94054199 -44.20800781 93.87988281 C-48.47664806 93.64028693 -52.73823554 93.34290059 -57 93 C-56.75241943 93.5347998 -56.50483887 94.06959961 -56.24975586 94.62060547 C-55.1375055 97.03507299 -54.0373886 99.45487783 -52.9375 101.875 C-52.54755859 102.71675781 -52.15761719 103.55851563 -51.75585938 104.42578125 C-51.20961914 105.63427734 -51.20961914 105.63427734 -50.65234375 106.8671875 C-50.31195068 107.61081543 -49.97155762 108.35444336 -49.62084961 109.12060547 C-49 111 -49 111 -50 113 C-51.79293448 109.75069788 -53.58412522 106.50043773 -55.375 103.25 C-55.88289063 102.32960938 -56.39078125 101.40921875 -56.9140625 100.4609375 C-57.64882813 99.12675781 -57.64882813 99.12675781 -58.3984375 97.765625 C-59.07398682 96.54020996 -59.07398682 96.54020996 -59.76318359 95.29003906 C-60.17133301 94.53432617 -60.57948242 93.77861328 -61 93 C-61.57935303 91.93990723 -61.57935303 91.93990723 -62.17041016 90.85839844 C-63.36586752 88.18040508 -62.95808042 86.73737263 -62 84 C-60.5859375 81.859375 -60.5859375 81.859375 -58 80 C-54.57213435 79.50129078 -51.2045681 79.6242034 -47.75 79.75 C-46.81414062 79.76804687 -45.87828125 79.78609375 -44.9140625 79.8046875 C-42.60832985 79.85174327 -40.30469055 79.91746287 -38 80 C-39.14550035 77.54151101 -40.29138545 75.08320264 -41.4375 72.625 C-41.92573242 71.57699219 -41.92573242 71.57699219 -42.42382812 70.5078125 C-44.17781436 66.73753019 -44.17781436 66.73753019 -46 63 C-46.39862408 59.41238325 -46.28014513 57.50104285 -44.50390625 54.32421875 C-41.5818928 51.61189737 -39.82078927 51.44912803 -35.8984375 51.51171875 C-34.77308594 51.56779297 -34.77308594 51.56779297 -33.625 51.625 C-32.8825 51.63917969 -32.14 51.65335938 -31.375 51.66796875 C-27.17050069 51.77939541 -23.1379928 52.19867441 -19 53 C-20.14519605 50.37472029 -21.29112781 47.74976607 -22.4375 45.125 C-22.76298828 44.37863281 -23.08847656 43.63226562 -23.42382812 42.86328125 C-23.89272461 41.79013672 -23.89272461 41.79013672 -24.37109375 40.6953125 C-24.65911865 40.03547363 -24.94714355 39.37563477 -25.24389648 38.69580078 C-25.79932312 37.45008125 -26.39003018 36.21993963 -27 35 C-27.375 31.625 -27.375 31.625 -27 28 C-24.37034322 25.26204372 -22.78594667 24.09446383 -18.9855957 23.63769531 C-17.89335693 23.70053711 -16.80111816 23.76337891 -15.67578125 23.828125 C-14.48275391 23.88613281 -13.28972656 23.94414063 -12.06054688 24.00390625 C-10.82369141 24.08511719 -9.58683594 24.16632812 -8.3125 24.25 C-7.06404297 24.31574219 -5.81558594 24.38148438 -4.52929688 24.44921875 C-2.22774232 24.57146934 0.0733771 24.70243013 2.3737793 24.84472656 C3.91403145 24.93579288 5.45705808 25 7 25 C7.4021875 24.195625 7.4021875 24.195625 7.8125 23.375 C8.72940338 21.54119324 9.69803561 19.73319464 10.6875 17.9375 C12.38457434 15.0275153 12.38457434 15.0275153 11 12 C9.23935719 10.47270908 9.23935719 10.47270908 7.125 9.0625 C4.13773038 6.99566216 1.97501825 5.07432085 0 2 C0 1.34 0 0.68 0 0 Z " fill="#B4B4B6" transform="translate(380,587)"/>
<path d="M0 0 C0.64574982 -0.0065712 1.29149963 -0.0131424 1.95681763 -0.01991272 C4.09710809 -0.03964753 6.23732837 -0.051309 8.37768555 -0.0612793 C9.47434571 -0.06739259 9.47434571 -0.06739259 10.59316063 -0.07362938 C14.46330864 -0.09449155 18.33342119 -0.10879222 22.20361328 -0.11816406 C26.19856905 -0.12922508 30.19296727 -0.16362023 34.18772602 -0.20333576 C37.26156134 -0.22949875 40.3352638 -0.2378556 43.40920067 -0.24144554 C44.88159129 -0.2463129 46.35397592 -0.25793129 47.82625771 -0.27648354 C49.88982749 -0.30086884 51.95195483 -0.29991224 54.015625 -0.29296875 C55.7752935 -0.30176811 55.7752935 -0.30176811 57.57051086 -0.31074524 C61.34915994 0.27781877 62.9939698 1.530914 65.7019043 4.17700195 C67.43315551 7.63950438 67.18005653 11.39108424 66.7019043 15.17700195 C64.55613251 18.77883317 62.56040962 20.64335709 58.7019043 22.17700195 C55.87626648 22.45788574 55.87626648 22.45788574 52.57568359 22.49926758 C51.33727219 22.51848267 50.09886078 22.53769775 48.82292175 22.55749512 C47.47399638 22.56719238 46.12506241 22.57574972 44.77612305 22.58325195 C43.38613382 22.59476604 41.9961446 22.60628136 40.6061554 22.61779785 C37.69347665 22.63878241 34.78090771 22.65049048 31.86816406 22.6574707 C28.14883827 22.668429 24.43098116 22.71646789 20.71211529 22.77341461 C17.84062054 22.81079961 14.96947482 22.82108537 12.09775734 22.82414246 C10.72745554 22.83016802 9.35715788 22.84613268 7.98709679 22.87251282 C-4.03936811 23.08753571 -4.03936811 23.08753571 -8.63085938 19.32348633 C-11.52593357 16.38678421 -12.22729916 13.94160459 -12.6105957 9.80200195 C-12.24694543 5.58365882 -11.24924578 4.12815203 -8.2980957 1.17700195 C-5.49066657 -0.22671261 -3.14035782 0.02640613 0 0 Z " fill="#E3634C" transform="translate(502.298095703125,388.822998046875)"/>
<path d="M0 0 C0 0.66 0 1.32 0 2 C0.66 2 1.32 2 2 2 C2.12375 3.175625 2.12375 3.175625 2.25 4.375 C2.4975 5.24125 2.745 6.1075 3 7 C4.3299205 7.6734491 5.6637849 8.33912827 7 9 C8.7109375 10.734375 8.7109375 10.734375 10.375 12.75 C16.34489048 19.89236856 16.34489048 19.89236856 24 25 C25.67533952 26.65794845 27.34044056 28.32625629 29 30 C37.46478495 37.77232017 46.39425494 44.01893692 56.23486328 49.92480469 C58.59729838 51.36383154 60.89554569 52.88919143 63.1875 54.4375 C67.23950925 57.16437201 71.09180867 59.62419669 75.625 61.5 C78.62930385 62.83524615 79.87145674 63.67795281 82 66 C81.38125 67.010625 80.7625 68.02125 80.125 69.0625 C76.97822663 75.23330026 76.6723676 82.20554845 76 89 C75.67 89 75.34 89 75 89 C75.12761719 88.28787354 75.25523437 87.57574707 75.38671875 86.84204102 C75.71982373 83.62968691 75.74116433 81.15261064 75 78 C71.83968592 74.73356753 68.04237431 72.94258268 64 70.9375 C61.78426713 69.74383645 59.56942431 68.54851931 57.35546875 67.3515625 C56.26669434 66.78083008 55.17791992 66.21009766 54.05615234 65.62207031 C50.04835262 63.49490772 46.16058914 61.21464343 42.3125 58.8125 C41.36793945 58.22505005 41.36793945 58.22505005 40.40429688 57.62573242 C34.80652043 54.04896563 29.81819912 49.86355887 24.84375 45.4765625 C22.45851639 43.39931235 20.05501086 41.48405641 17.5 39.625 C12.56486909 36.0065952 8.80778698 31.75973373 5 27 C4.236875 26.24203125 3.47375 25.4840625 2.6875 24.703125 C-15 6.9127907 -15 6.9127907 -15 -1 C-9.20858017 -2.01603857 -5.5415502 -1.96263236 0 0 Z " fill="#A1A1A2" transform="translate(228,391)"/>
<path d="M0 0 C1.53642151 -0.00717545 1.53642151 -0.00717545 3.10388184 -0.01449585 C5.26572204 -0.01789264 7.42761375 -0.00870578 9.58935547 0.01220703 C12.8953726 0.03897443 16.19799453 0.01245033 19.50390625 -0.01953125 C21.60677832 -0.01622711 23.70964827 -0.00982081 25.8125 0 C27.29236389 -0.01518173 27.29236389 -0.01518173 28.80212402 -0.03067017 C33.48131343 0.0491038 35.70333975 0.13490411 39.53320312 3.01806641 C41.40625 5.6640625 41.40625 5.6640625 41.96875 8.6640625 C41.28267343 12.32313754 39.97890686 14.01573926 37.40625 16.6640625 C35.08950648 17.82243426 33.7076392 17.80849917 31.12768555 17.84106445 C30.24304123 17.85389969 29.35839691 17.86673492 28.44694519 17.87995911 C27.48863297 17.88734604 26.53032074 17.89473297 25.54296875 17.90234375 C24.06676811 17.91445137 24.06676811 17.91445137 22.56074524 17.92680359 C20.47516647 17.94064915 18.389565 17.95136918 16.30395508 17.95922852 C13.11691245 17.97643743 9.93090809 18.02031917 6.74414062 18.06445312 C4.71875764 18.07458029 2.69336582 18.08309632 0.66796875 18.08984375 C-0.76039055 18.11610588 -0.76039055 18.11610588 -2.21760559 18.14289856 C-6.53738998 18.12876389 -8.92842319 18.07499189 -12.67260742 15.76245117 C-14.95650382 13.26784073 -15.52120181 12.20817392 -15.96875 8.8515625 C-15.59375 5.6640625 -15.59375 5.6640625 -13.73242188 3.00634766 C-9.22536536 -0.35711689 -5.48915178 -0.0563125 0 0 Z " fill="#E6E7E7" transform="translate(641.59375,394.3359375)"/>
<path d="M0 0 C0.97751724 -0.00478363 1.95503448 -0.00956726 2.96217346 -0.01449585 C5.02566134 -0.0178922 7.08920322 -0.00870837 9.15258789 0.01220703 C12.30282294 0.0389472 15.44948571 0.01246469 18.59960938 -0.01953125 C20.60808075 -0.01622654 22.61654991 -0.00981905 24.625 0 C26.03150063 -0.01518173 26.03150063 -0.01518173 27.46641541 -0.03067017 C31.85911826 0.04761687 34.95649317 0.24545215 38.48461914 3.01806641 C40.87890625 5.6640625 40.87890625 5.6640625 41.44140625 8.6640625 C40.82349855 11.95957025 39.8718961 13.98119154 37.87890625 16.6640625 C35.56216273 17.82243426 34.18029545 17.80849917 31.6003418 17.84106445 C30.71569748 17.85389969 29.83105316 17.86673492 28.91960144 17.87995911 C27.96128922 17.88734604 27.00297699 17.89473297 26.015625 17.90234375 C24.53942436 17.91445137 24.53942436 17.91445137 23.03340149 17.92680359 C20.94782272 17.94064915 18.86222125 17.95136918 16.77661133 17.95922852 C13.5895687 17.97643743 10.40356434 18.02031917 7.21679688 18.06445312 C5.19141389 18.07458029 3.16602207 18.08309632 1.140625 18.08984375 C-0.2877343 18.11610588 -0.2877343 18.11610588 -1.74494934 18.14289856 C-6.06473373 18.12876389 -8.45576694 18.07499189 -12.19995117 15.76245117 C-14.48384757 13.26784073 -15.04854556 12.20817392 -15.49609375 8.8515625 C-15.12109375 5.6640625 -15.12109375 5.6640625 -13.23022461 3.00634766 C-8.84425081 -0.29785592 -5.35760477 -0.05770528 0 0 Z " fill="#E7E6E6" transform="translate(723.12109375,403.3359375)"/>
<path d="M0 0 C14.19 0 28.38 0 43 0 C43 0.33 43 0.66 43 1 C41.35 1 39.7 1 38 1 C37.67 2.98 37.34 4.96 37 7 C32.53565142 7.29210652 28.07140945 7.54310438 23.6027832 7.75683594 C22.08426192 7.83518199 20.56626794 7.92458246 19.04907227 8.02539062 C16.86260436 8.16871858 14.67729579 8.2716647 12.48828125 8.3671875 C11.17384033 8.44050293 9.85939941 8.51381836 8.50512695 8.58935547 C4.83955707 7.97302297 4.31852558 7.74026569 2.03198242 5.10205078 C0 2 0 2 0 0 Z " fill="#A2A09E" transform="translate(380,587)"/>
<path d="M0 0 C5.01265823 6.60759494 5.01265823 6.60759494 4.9375 8.9375 C2.58376048 14.11572694 -3.10656105 16.12561738 -8.0625 18.1875 C-9.27035156 18.69667969 -10.47820313 19.20585938 -11.72265625 19.73046875 C-15.83629135 21.32395076 -19.21881479 22.16158157 -23.625 22.25 C-24.78902344 22.28867187 -24.78902344 22.28867187 -25.9765625 22.328125 C-26.64429688 22.21984375 -27.31203125 22.1115625 -28 22 C-28.66 21.01 -29.32 20.02 -30 19 C-28.94941406 18.63648438 -27.89882813 18.27296875 -26.81640625 17.8984375 C-17.27502044 14.5141775 -7.66920628 11.05862425 -1 3 C-0.67 2.01 -0.34 1.02 0 0 Z " fill="#ABABAA" transform="translate(695,568)"/>
<path d="M0 0 C7.92 0 15.84 0 24 0 C21.12389925 2.87610075 18.53425774 4.67295334 15.0625 6.75 C14.02222656 7.38421875 12.98195313 8.0184375 11.91015625 8.671875 C9 10 9 10 5 9 C3.35 6.03 1.7 3.06 0 0 Z " fill="#B6B5B5" transform="translate(619,587)"/>
<path d="M0 0 C9.57 0 19.14 0 29 0 C28.67 0.99 28.34 1.98 28 3 C18.43 3 8.86 3 -1 3 C-0.67 2.01 -0.34 1.02 0 0 Z " fill="#3C3C3B" transform="translate(457,583)"/>
<path d="M0 0 C1.03613937 0.00707474 2.07227875 0.01414948 3.13981628 0.0214386 C6.44160872 0.04937518 9.74169091 0.11211495 13.04296875 0.17578125 C15.28448068 0.20086495 17.52601925 0.22367799 19.76757812 0.24414062 C25.25578955 0.29919919 30.74300696 0.38281844 36.23046875 0.48828125 C36.23046875 0.81828125 36.23046875 1.14828125 36.23046875 1.48828125 C35.66305969 1.48970627 35.09565063 1.49113129 34.51104736 1.49259949 C28.60583135 1.51228453 22.7016507 1.5665316 16.796875 1.64086914 C14.59317452 1.6640677 12.38936287 1.67844919 10.18554688 1.68383789 C7.01752293 1.69311364 3.85125197 1.73407539 0.68359375 1.78125 C-0.79472931 1.77535103 -0.79472931 1.77535103 -2.30291748 1.76933289 C-7.8830761 1.79970298 -7.8830761 1.79970298 -12.34472656 4.88793945 C-14.14963119 8.14215289 -14.14963119 8.14215289 -15.76953125 11.48828125 C-16.20825493 7.71525757 -16.10954019 5.9811436 -13.9230957 2.81176758 C-9.34846361 -0.55873437 -5.53899864 -0.14261927 0 0 Z " fill="#EAD5CB" transform="translate(641.76953125,394.51171875)"/>
<path d="M0 0 C0.66 0.66 1.32 1.32 2 2 C0.65332031 4.46948242 0.65332031 4.46948242 -2 7 C-5.47952081 7.72560207 -8.91220325 7.58099969 -12.453125 7.48828125 C-13.46848328 7.48120651 -14.48384155 7.47413177 -15.52996826 7.46684265 C-18.77073053 7.43886958 -22.0097606 7.37612355 -25.25 7.3125 C-27.4478917 7.28742099 -29.64581051 7.26460714 -31.84375 7.24414062 C-37.22975697 7.18903371 -42.61475474 7.10537845 -48 7 C-48 6.67 -48 6.34 -48 6 C-25.23 5.505 -25.23 5.505 -2 5 C-1.34 3.35 -0.68 1.7 0 0 Z " fill="#F2947E" transform="translate(763,415)"/>
<path d="M0 0 C2.69097695 2.08550714 4.72333049 3.73555173 5.47265625 7.16015625 C5.6286128 11.22180734 5.32120748 13.46834624 3.1875 17 C1 19 1 19 -2 20 C-0.125 16.125 -0.125 16.125 1 15 C1.23075082 13.65252916 1.41153063 12.29622435 1.5625 10.9375 C1.7790625 8.9884375 1.7790625 8.9884375 2 7 C1.34 7 0.68 7 0 7 C0 4.69 0 2.38 0 0 Z " fill="#E7846B" transform="translate(564,390)"/>
<path d="M0 0 C2.86724686 0.57344937 3.8614515 0.8614515 6 3 C6.375 5.875 6.375 5.875 6 9 C4 11.375 4 11.375 2 13 C1.67 12.67 1.34 12.34 1 12 C1 10.00387907 1.00258336 8.00763383 1.03125 6.01171875 C0.99808428 3.87667548 0.67547226 2.02641679 0 0 Z " fill="#F4F4F3" transform="translate(758,406)"/>
<path d="M0 0 C0 0.66 0 1.32 0 2 C-0.66 2 -1.32 2 -2 2 C-1.72212646 2.56509277 -1.44425293 3.13018555 -1.15795898 3.71240234 C0.09041883 6.26267112 1.32657539 8.8186745 2.5625 11.375 C3.00013672 12.26445313 3.43777344 13.15390625 3.88867188 14.0703125 C4.50258789 15.34648438 4.50258789 15.34648438 5.12890625 16.6484375 C5.70233765 17.82672119 5.70233765 17.82672119 6.28735352 19.02880859 C6.52252686 19.67930176 6.7577002 20.32979492 7 21 C6.67 21.66 6.34 22.32 6 23 C4.15984502 19.7121022 2.32904953 16.41908674 0.5 13.125 C-0.02464844 12.18785156 -0.54929687 11.25070312 -1.08984375 10.28515625 C-1.58613281 9.38925781 -2.08242188 8.49335937 -2.59375 7.5703125 C-3.05458984 6.74289551 -3.51542969 5.91547852 -3.99023438 5.06298828 C-5 3 -5 3 -5 1 C-3 0 -3 0 0 0 Z " fill="#A1A2A3" transform="translate(324,677)"/>
<path d="M0 0 C10.56 0 21.12 0 32 0 C32 0.33 32 0.66 32 1 C30.80455566 1.03758423 30.80455566 1.03758423 29.58496094 1.07592773 C25.97314778 1.19198789 22.36158898 1.31466931 18.75 1.4375 C16.86861328 1.49647461 16.86861328 1.49647461 14.94921875 1.55664062 C13.74394531 1.59853516 12.53867187 1.64042969 11.296875 1.68359375 C10.18666992 1.72025146 9.07646484 1.75690918 7.93261719 1.79467773 C5.46978151 1.96710904 3.35517035 2.29595439 1 3 C0.67 2.01 0.34 1.02 0 0 Z " fill="#918F8D" transform="translate(380,587)"/>
<path d="M0 0 C2.6855594 2.6855594 3.06049974 5.37621328 4 9 C2.02 9.99 2.02 9.99 0 11 C-2.1519437 7.77208445 -2.20086443 6.71599191 -2 3 C-1.34 3 -0.68 3 0 3 C0 2.01 0 1.02 0 0 Z " fill="#313030" transform="translate(309,549)"/>
<path d="M0 0 C2.20703125 -0.328125 2.20703125 -0.328125 4.8125 -0.25 C6.14861328 -0.21132813 6.14861328 -0.21132813 7.51171875 -0.171875 C10.07839181 0.00541482 12.51157815 0.33642084 15 1 C15 1.66 15 2.32 15 3 C9.39 3 3.78 3 -2 3 C-1.34 2.01 -0.68 1.02 0 0 Z " fill="#3F3F3D" transform="translate(348,583)"/>
<path d="M0 0 C1.74271938 2.297221 3.39911152 4.59866729 5 7 C4.67 7.99 4.34 8.98 4 10 C2.5 8.625 2.5 8.625 1 7 C1 6.34 1 5.68 1 5 C-0.98 5.99 -0.98 5.99 -3 7 C-2.690625 6.401875 -2.38125 5.80375 -2.0625 5.1875 C-0.89790296 2.91043228 -0.89790296 2.91043228 0 0 Z " fill="#B2B3AE" transform="translate(695,568)"/>
<path d="M0 0 C0.99 0.33 1.98 0.66 3 1 C2.38125 1.7425 1.7625 2.485 1.125 3.25 C-0.60437281 5.48801188 -1.86106661 7.43739987 -3 10 C-3.36923077 4.58461538 -3.36923077 4.58461538 -1.5 1.625 C-1.005 1.08875 -0.51 0.5525 0 0 Z " fill="#E7DDD9" transform="translate(629,396)"/>
<path d="M0 0 C0 0.66 0 1.32 0 2 C-1.1446875 2.1546875 -1.1446875 2.1546875 -2.3125 2.3125 C-5.17059424 3.04364039 -6.15742885 3.76951913 -8 6 C-8 4.35 -8 2.7 -8 1 C-5.29120665 -0.35439668 -2.99066732 -0.06501451 0 0 Z " fill="#E0E0DF" transform="translate(408,607)"/>
<path d="M0 0 C0.33 0.66 0.66 1.32 1 2 C0.0625 4.125 0.0625 4.125 -1 6 C-1.99 5.67 -2.98 5.34 -4 5 C-3.6875 3.0625 -3.6875 3.0625 -3 1 C-2.01 0.67 -1.02 0.34 0 0 Z " fill="#444142" transform="translate(317,563)"/>
</svg>